<?xml version="1.0" encoding="UTF-8"?>
<svg width="24px" height="24px" viewBox="0 0 24 24" version="1.1" xmlns="http://www.w3.org/2000/svg" xmlns:xlink="http://www.w3.org/1999/xlink">
    <!-- Generator: Sketch 55.2 (78181) - https://sketchapp.com -->
    <title>Ω Resources / Icons / Avatar Warn</title>
    <desc>Created with Sketch.</desc>
    <defs>
        <path d="M15.8534448,11.0451787 C16.1078962,10.4998478 16.25,9.89153617 16.25,9.25 C16.25,6.90258333 14.3474167,5 12,5 C9.65258333,5 7.75,6.90258333 7.75,9.25 C7.75,11.5974167 9.65258333,13.5 12,13.5 C13.4181435,13.5 14.6739351,12.8056097 15.4459548,11.7382491 L14.2060715,14.2180132 C13.4951755,14.5135947 12.7525891,14.8 11.9997179,14.8 C9.86751788,14.8 7.81511788,12.4998 6.33391788,14.2092 C5.91391788,14.6936 5.88031788,15.3992 6.24011788,15.9284 C7.4638665,17.7292341 9.48927255,18.9371342 11.8162663,18.9976188 L11.2847833,20.0605837 C10.9887473,20.6582801 10.9249589,21.3323013 11.0876586,21.9589402 C5.99239286,21.4981134 2,17.2152934 2,12 C2,6.4771525 6.4771525,2 12,2 C17.5228475,2 22,6.4771525 22,12 C21.9991927,12.7351122 21.9191636,13.451663 21.7679904,14.1415745 L20.4367508,11.5068296 C19.9796075,10.5861759 19.0340612,10 17.9992105,10 C17.1514574,10 16.363636,10.3933792 15.8534448,11.0451787 Z M23.8642105,20.5077973 C24.13694,21.056888 24.0977307,21.7094766 23.7612189,22.2219624 C23.4247071,22.7344483 22.8414662,23.0298113 22.2292105,22.9977973 L13.6792105,22.9977973 C13.0908706,22.982174 12.5510971,22.6676654 12.2473993,22.163527 C11.9437014,21.6593885 11.9179952,21.0352008 12.1792105,20.5077973 L16.4542105,11.9577973 C16.7455647,11.3710655 17.3441216,11 17.9992105,11 C18.6542995,11 19.2528563,11.3710655 19.5442105,11.9577973 L23.8642105,20.5077973 Z M17.1892105,14.8377973 L17.1892105,17.4327973 C17.2463926,17.8654621 17.6152834,18.1888072 18.0517105,18.1888072 C18.4881377,18.1888072 18.8570285,17.8654621 18.9142105,17.4327973 L18.9142105,14.8377973 C18.9585244,14.5024986 18.8045005,14.1719048 18.5192838,13.9901347 C18.2340671,13.8083646 17.869354,13.8083646 17.5841373,13.9901347 C17.2989206,14.1719048 17.1448966,14.5024986 17.1892105,14.8377973 Z M19.0642105,20.0127973 C19.0642105,19.6002458 18.8156955,19.2283168 18.4345476,19.0704402 C18.0533998,18.9125635 17.6146796,18.9998304 17.3229616,19.2915484 C17.0312437,19.5832663 16.9439768,20.0219865 17.1018534,20.4031344 C17.25973,20.7842823 17.631659,21.0327973 18.0442105,21.0327973 C18.607541,21.0327973 19.0642105,20.5761277 19.0642105,20.0127973 Z" id="path-1"></path>
    </defs>
    <g id="Ω-Resources-/-Icons-/-Avatar-Warn" stroke="none" stroke-width="1" fill="none" fill-rule="evenodd">
        <mask id="mask-2" fill="white">
            <use xlink:href="#path-1"></use>
        </mask>
        <use id="Combined-Shape" fill="#20123A" xlink:href="#path-1"></use>
    </g>
</svg>