<?xml version="1.0" encoding="UTF-8"?>
<svg width="24px" height="24px" viewBox="0 0 24 24" version="1.1" xmlns="http://www.w3.org/2000/svg" xmlns:xlink="http://www.w3.org/1999/xlink">
    <!-- Generator: Sketch 57.1 (83088) - https://sketch.com -->
    <title>Path Copy</title>
    <desc>Created with Sketch.</desc>
    <defs>
        <path d="M12.0546719,24 C12.0364575,24 12.0182335,24 12,24 C5.372583,24 0,18.627417 0,12 C0,5.372583 5.372583,0 12,0 C18.627417,0 24,5.372583 24,12 C24,18.6091835 18.6569387,23.9704282 12.0546719,24 C12.0364729,24 12.0182428,24 12,24 C11.9635144,24 11.9270796,24 11.8906967,23.9995666 L11.8907138,23.9995127 C11.9271041,24 11.963533,24 12,24 C12.036467,24 12.0728959,24 12.1092862,23.9995127 C12.0911033,23.999684 12.0729032,24 12.054688,24 L12.0546719,24 Z" id="path-1"></path>
        <filter x="-2.1%" y="-2.1%" width="104.2%" height="104.2%" filterUnits="objectBoundingBox" id="filter-3">
            <feGaussianBlur stdDeviation="0.5" in="SourceAlpha" result="shadowBlurInner1"></feGaussianBlur>
            <feOffset dx="0" dy="0" in="shadowBlurInner1" result="shadowOffsetInner1"></feOffset>
            <feComposite in="shadowOffsetInner1" in2="SourceAlpha" operator="arithmetic" k2="-1" k3="1" result="shadowInnerInner1"></feComposite>
            <feColorMatrix values="0 0 0 0 0   0 0 0 0 0   0 0 0 0 0  0 0 0 1 0" type="matrix" in="shadowInnerInner1"></feColorMatrix>
        </filter>
    </defs>
    <g id="Page-1" stroke="none" stroke-width="1" fill="none" fill-rule="evenodd">
        <g id="Homescreen---Toolbar---Sync" transform="translate(-707.000000, -36.000000)">
            <g id="Homescreen-/-Navigation-/-Default">
                <g id="Firefox-Account" transform="translate(695.000000, 24.000000)">
                    <g id="FAB-/-48-/-Primary-/-Default" transform="translate(12.000000, 12.000000)">
                        <g id="Icon">
                            <mask id="mask-2" fill="white">
                                <use xlink:href="#path-1"></use>
                            </mask>
                            <g id="Path-Copy" fill="black" fill-opacity="1">
                                <use filter="url(#filter-3)" xlink:href="#path-1"></use>
                            </g>
                        </g>
                    </g>
                </g>
            </g>
        </g>
    </g>
</svg>